<svg width="16" height="18" viewBox="0 0 16 18" fill="none" xmlns="http://www.w3.org/2000/svg">
<path d="M2.16667 17.3315C1.70833 17.3315 1.31597 17.1683 0.989583 16.8419C0.663194 16.5155 0.5 16.1231 0.5 15.6648V3.99813C0.5 3.53979 0.663194 3.14743 0.989583 2.82104C1.31597 2.49466 1.70833 2.33146 2.16667 2.33146H3V0.664795H4.66667V2.33146H11.3333V0.664795H13V2.33146H13.8333C14.2917 2.33146 14.684 2.49466 15.0104 2.82104C15.3368 3.14743 15.5 3.53979 15.5 3.99813V15.6648C15.5 16.1231 15.3368 16.5155 15.0104 16.8419C14.684 17.1683 14.2917 17.3315 13.8333 17.3315H2.16667ZM2.16667 15.6648H13.8333V7.33146H2.16667V15.6648ZM2.16667 5.66479H13.8333V3.99813H2.16667V5.66479Z" fill="#821101"/>
</svg>
