<svg width="44" height="43" viewBox="0 0 44 43" fill="none" xmlns="http://www.w3.org/2000/svg">
<path d="M40.92 21.9479C40.92 20.5504 40.7946 19.2067 40.5617 17.9167H22V25.5492H32.6067C32.1408 28.0038 30.7433 30.0821 28.6471 31.4796V36.4425H35.0433C38.77 33.0025 40.92 27.95 40.92 21.9479Z" fill="#4285F4"/>
<path d="M21.9999 41.2083C27.3212 41.2083 31.7824 39.4525 35.0433 36.4425L28.647 31.4796C26.8912 32.6621 24.6516 33.3788 21.9999 33.3788C16.8758 33.3788 12.522 29.9208 10.9633 25.2625H4.40576V30.3508C7.64868 36.7829 14.2958 41.2083 21.9999 41.2083Z" fill="#34A853"/>
<path d="M10.9632 25.2446C10.569 24.0621 10.3361 22.8079 10.3361 21.5C10.3361 20.1921 10.569 18.9379 10.9632 17.7554V12.6671H4.40567C3.06192 15.3188 2.2915 18.3109 2.2915 21.5C2.2915 24.6892 3.06192 27.6813 4.40567 30.333L9.51192 26.3554L10.9632 25.2446Z" fill="#FBBC05"/>
<path d="M21.9999 9.63919C24.9024 9.63919 27.4824 10.6425 29.5428 12.5775L35.1866 6.93377C31.7645 3.7446 27.3212 1.79169 21.9999 1.79169C14.2958 1.79169 7.64868 6.2171 4.40576 12.6671L10.9633 17.7554C12.522 13.0971 16.8758 9.63919 21.9999 9.63919Z" fill="#EA4335"/>
</svg>
