<svg width="20" height="20" viewBox="0 0 20 20" fill="none" xmlns="http://www.w3.org/2000/svg">
<mask id="mask0_5_1036" style="mask-type:alpha" maskUnits="userSpaceOnUse" x="0" y="0" width="20" height="20">
<rect width="20" height="20" fill="#D9D9D9"/>
</mask>
<g mask="url(#mask0_5_1036)">
<path d="M0.832397 16.6685V14.3352C0.832397 13.863 0.953925 13.429 1.19698 13.0331C1.44004 12.6373 1.76295 12.3352 2.16573 12.1269C3.02684 11.6963 3.90184 11.3734 4.79073 11.1581C5.67962 10.9428 6.5824 10.8352 7.49906 10.8352C8.41573 10.8352 9.31851 10.9428 10.2074 11.1581C11.0963 11.3734 11.9713 11.6963 12.8324 12.1269C13.2352 12.3352 13.5581 12.6373 13.8011 13.0331C14.0442 13.429 14.1657 13.863 14.1657 14.3352V16.6685H0.832397ZM15.8324 16.6685V14.1685C15.8324 13.5574 15.6623 12.9706 15.322 12.4081C14.9817 11.8456 14.4991 11.363 13.8741 10.9602C14.5824 11.0435 15.2491 11.1859 15.8741 11.3873C16.4991 11.5887 17.0824 11.8352 17.6241 12.1269C18.1241 12.4046 18.506 12.7137 18.7699 13.054C19.0338 13.3942 19.1657 13.7658 19.1657 14.1685V16.6685H15.8324ZM7.49906 10.0019C6.5824 10.0019 5.79768 9.67548 5.1449 9.0227C4.49212 8.36993 4.16573 7.5852 4.16573 6.66854C4.16573 5.75187 4.49212 4.96715 5.1449 4.31437C5.79768 3.66159 6.5824 3.33521 7.49906 3.33521C8.41573 3.33521 9.20045 3.66159 9.85323 4.31437C10.506 4.96715 10.8324 5.75187 10.8324 6.66854C10.8324 7.5852 10.506 8.36993 9.85323 9.0227C9.20045 9.67548 8.41573 10.0019 7.49906 10.0019ZM15.8324 6.66854C15.8324 7.5852 15.506 8.36993 14.8532 9.0227C14.2005 9.67548 13.4157 10.0019 12.4991 10.0019C12.3463 10.0019 12.1518 9.98451 11.9157 9.94979C11.6796 9.91507 11.4852 9.87687 11.3324 9.8352C11.7074 9.39076 11.9956 8.8977 12.197 8.35604C12.3984 7.81437 12.4991 7.25187 12.4991 6.66854C12.4991 6.0852 12.3984 5.5227 12.197 4.98104C11.9956 4.43937 11.7074 3.94632 11.3324 3.50187C11.5268 3.43243 11.7213 3.38729 11.9157 3.36646C12.1102 3.34562 12.3046 3.33521 12.4991 3.33521C13.4157 3.33521 14.2005 3.66159 14.8532 4.31437C15.506 4.96715 15.8324 5.75187 15.8324 6.66854ZM2.49906 15.0019H12.4991V14.3352C12.4991 14.1824 12.4609 14.0435 12.3845 13.9185C12.3081 13.7935 12.2074 13.6963 12.0824 13.6269C11.3324 13.2519 10.5755 12.9706 9.81157 12.7831C9.04768 12.5956 8.27684 12.5019 7.49906 12.5019C6.72129 12.5019 5.95045 12.5956 5.18656 12.7831C4.42268 12.9706 3.66573 13.2519 2.91573 13.6269C2.79073 13.6963 2.69004 13.7935 2.61365 13.9185C2.53726 14.0435 2.49906 14.1824 2.49906 14.3352V15.0019ZM7.49906 8.3352C7.9574 8.3352 8.34976 8.17201 8.67615 7.84562C9.00254 7.51923 9.16573 7.12687 9.16573 6.66854C9.16573 6.2102 9.00254 5.81784 8.67615 5.49145C8.34976 5.16507 7.9574 5.00187 7.49906 5.00187C7.04073 5.00187 6.64837 5.16507 6.32198 5.49145C5.99559 5.81784 5.8324 6.2102 5.8324 6.66854C5.8324 7.12687 5.99559 7.51923 6.32198 7.84562C6.64837 8.17201 7.04073 8.3352 7.49906 8.3352Z" fill="#821101"/>
</g>
</svg>
