<svg width="18" height="18" viewBox="0 0 18 18" fill="none" xmlns="http://www.w3.org/2000/svg">
<mask id="mask0_5_1055" style="mask-type:alpha" maskUnits="userSpaceOnUse" x="0" y="0" width="18" height="18">
<rect width="18" height="18" fill="#D9D9D9"/>
</mask>
<g mask="url(#mask0_5_1055)">
<path d="M8.96213 13.5024C9.22463 13.5024 9.44651 13.4118 9.62776 13.2306C9.80901 13.0493 9.89963 12.8274 9.89963 12.5649C9.89963 12.3024 9.80901 12.0806 9.62776 11.8993C9.44651 11.7181 9.22463 11.6274 8.96213 11.6274C8.69963 11.6274 8.47776 11.7181 8.29651 11.8993C8.11526 12.0806 8.02463 12.3024 8.02463 12.5649C8.02463 12.8274 8.11526 13.0493 8.29651 13.2306C8.47776 13.4118 8.69963 13.5024 8.96213 13.5024ZM8.28713 10.6149H9.67463C9.67463 10.2024 9.72151 9.87744 9.81526 9.63994C9.90901 9.40244 10.1746 9.07744 10.6121 8.66494C10.9371 8.33994 11.1934 8.03057 11.3809 7.73682C11.5684 7.44307 11.6621 7.08994 11.6621 6.67744C11.6621 5.97744 11.4059 5.43994 10.8934 5.06494C10.3809 4.68994 9.77463 4.50244 9.07463 4.50244C8.36213 4.50244 7.78401 4.68994 7.34026 5.06494C6.89651 5.43994 6.58713 5.88994 6.41213 6.41494L7.64963 6.90244C7.71213 6.67744 7.85276 6.43369 8.07151 6.17119C8.29026 5.90869 8.62463 5.77744 9.07463 5.77744C9.47463 5.77744 9.77463 5.88682 9.97463 6.10557C10.1746 6.32432 10.2746 6.56494 10.2746 6.82744C10.2746 7.07744 10.1996 7.31182 10.0496 7.53057C9.89963 7.74932 9.71213 7.95244 9.48713 8.13994C8.93713 8.62744 8.59963 8.99619 8.47463 9.24619C8.34963 9.49619 8.28713 9.95244 8.28713 10.6149ZM8.99963 16.5024C7.96213 16.5024 6.98713 16.3056 6.07463 15.9118C5.16213 15.5181 4.36838 14.9837 3.69338 14.3087C3.01838 13.6337 2.48401 12.8399 2.09026 11.9274C1.69651 11.0149 1.49963 10.0399 1.49963 9.00244C1.49963 7.96494 1.69651 6.98994 2.09026 6.07744C2.48401 5.16494 3.01838 4.37119 3.69338 3.69619C4.36838 3.02119 5.16213 2.48682 6.07463 2.09307C6.98713 1.69932 7.96213 1.50244 8.99963 1.50244C10.0371 1.50244 11.0121 1.69932 11.9246 2.09307C12.8371 2.48682 13.6309 3.02119 14.3059 3.69619C14.9809 4.37119 15.5153 5.16494 15.909 6.07744C16.3028 6.98994 16.4996 7.96494 16.4996 9.00244C16.4996 10.0399 16.3028 11.0149 15.909 11.9274C15.5153 12.8399 14.9809 13.6337 14.3059 14.3087C13.6309 14.9837 12.8371 15.5181 11.9246 15.9118C11.0121 16.3056 10.0371 16.5024 8.99963 16.5024ZM8.99963 15.0024C10.6746 15.0024 12.0934 14.4212 13.2559 13.2587C14.4184 12.0962 14.9996 10.6774 14.9996 9.00244C14.9996 7.32744 14.4184 5.90869 13.2559 4.74619C12.0934 3.58369 10.6746 3.00244 8.99963 3.00244C7.32463 3.00244 5.90588 3.58369 4.74338 4.74619C3.58088 5.90869 2.99963 7.32744 2.99963 9.00244C2.99963 10.6774 3.58088 12.0962 4.74338 13.2587C5.90588 14.4212 7.32463 15.0024 8.99963 15.0024Z" fill="#821101"/>
</g>
</svg>
