<svg width="19" height="18" viewBox="0 0 19 18" fill="none" xmlns="http://www.w3.org/2000/svg">
<path d="M2.37949 18L0.979492 16.6L11.2295 6.35C10.9295 5.65 10.8878 4.85833 11.1045 3.975C11.3212 3.09167 11.7962 2.3 12.5295 1.6C13.4128 0.716667 14.3962 0.2 15.4795 0.05C16.5628 -0.1 17.4462 0.166667 18.1295 0.85C18.8128 1.53333 19.0795 2.41667 18.9295 3.5C18.7795 4.58333 18.2628 5.56667 17.3795 6.45C16.6795 7.18333 15.8878 7.65833 15.0045 7.875C14.1212 8.09167 13.3295 8.05 12.6295 7.75L11.3795 9L18.9795 16.6L17.5795 18L9.97949 10.45L2.37949 18ZM5.32949 9.45L2.32949 6.45C1.42949 5.55 0.979492 4.475 0.979492 3.225C0.979492 1.975 1.42949 0.9 2.32949 0L8.52949 6.25L5.32949 9.45Z" fill="#821101"/>
</svg>
