<svg width="20" height="20" viewBox="0 0 20 20" fill="none" xmlns="http://www.w3.org/2000/svg">
<path d="M10 6L6 10L10 14L11.4 12.6L9.8 11L14 11L14 9L9.8 9L11.4 7.4L10 6ZM10 8.74228e-07C11.3833 7.53293e-07 12.6833 0.262501 13.9 0.787501C15.1167 1.3125 16.175 2.025 17.075 2.925C17.975 3.825 18.6875 4.88333 19.2125 6.1C19.7375 7.31667 20 8.61667 20 10C20 11.3833 19.7375 12.6833 19.2125 13.9C18.6875 15.1167 17.975 16.175 17.075 17.075C16.175 17.975 15.1167 18.6875 13.9 19.2125C12.6833 19.7375 11.3833 20 10 20C8.61667 20 7.31667 19.7375 6.1 19.2125C4.88333 18.6875 3.825 17.975 2.925 17.075C2.025 16.175 1.3125 15.1167 0.7875 13.9C0.2625 12.6833 -7.53293e-07 11.3833 -8.74228e-07 10C-9.95163e-07 8.61667 0.2625 7.31667 0.787499 6.1C1.3125 4.88333 2.025 3.825 2.925 2.925C3.825 2.025 4.88333 1.3125 6.1 0.787502C7.31666 0.262502 8.61667 9.95163e-07 10 8.74228e-07Z" fill="white"/>
</svg>
