<svg width="18" height="18" viewBox="0 0 18 18" fill="none" xmlns="http://www.w3.org/2000/svg">
<path d="M11.7445 12.9133L12.9111 11.7466L9.8278 8.66327V4.82994H8.16113V9.32994L11.7445 12.9133ZM8.99446 17.3299C7.84169 17.3299 6.75835 17.1112 5.74447 16.6737C4.73058 16.2362 3.84863 15.6424 3.09863 14.8924C2.34863 14.1424 1.75488 13.2605 1.31738 12.2466C0.879883 11.2327 0.661133 10.1494 0.661133 8.9966C0.661133 7.84382 0.879883 6.76049 1.31738 5.7466C1.75488 4.73271 2.34863 3.85077 3.09863 3.10077C3.84863 2.35077 4.73058 1.75702 5.74447 1.31952C6.75835 0.882019 7.84169 0.663269 8.99446 0.663269C10.1472 0.663269 11.2306 0.882019 12.2445 1.31952C13.2584 1.75702 14.1403 2.35077 14.8903 3.10077C15.6403 3.85077 16.234 4.73271 16.6715 5.7466C17.109 6.76049 17.3278 7.84382 17.3278 8.9966C17.3278 10.1494 17.109 11.2327 16.6715 12.2466C16.234 13.2605 15.6403 14.1424 14.8903 14.8924C14.1403 15.6424 13.2584 16.2362 12.2445 16.6737C11.2306 17.1112 10.1472 17.3299 8.99446 17.3299Z" fill="black"/>
</svg>
